<?xml version="1.0" encoding="UTF-8" standalone="no"?>
<svg
   xmlns:dc="http://purl.org/dc/elements/1.1/"
   xmlns:cc="http://creativecommons.org/ns#"
   xmlns:rdf="http://www.w3.org/1999/02/22-rdf-syntax-ns#"
   xmlns:svg="http://www.w3.org/2000/svg"
   xmlns="http://www.w3.org/2000/svg"
   xmlns:sodipodi="http://sodipodi.sourceforge.net/DTD/sodipodi-0.dtd"
   xmlns:inkscape="http://www.inkscape.org/namespaces/inkscape"
   width="273.07495mm"
   height="135.20035mm"
   viewBox="0 0 273.07495 135.20035"
   version="1.1"
   preserveAspectRatio="xMidYMid meet"
   id="svg9"
   sodipodi:docname="lasercut-firebeetle-4mm.svg"
   inkscape:version="0.92.3 (2405546, 2018-03-11)">
  <metadata
     id="metadata15">
    <rdf:RDF>
      <cc:Work
         rdf:about="">
        <dc:format>image/svg+xml</dc:format>
        <dc:type
           rdf:resource="http://purl.org/dc/dcmitype/StillImage" />
        <dc:title></dc:title>
      </cc:Work>
    </rdf:RDF>
  </metadata>
  <defs
     id="defs13" />
  <sodipodi:namedview
     pagecolor="#ffffff"
     bordercolor="#666666"
     borderopacity="1"
     objecttolerance="10"
     gridtolerance="10"
     guidetolerance="10"
     inkscape:pageopacity="0"
     inkscape:pageshadow="2"
     inkscape:window-width="2560"
     inkscape:window-height="1387"
     id="namedview11"
     showgrid="false"
     inkscape:zoom="0.92506173"
     inkscape:cx="665.73834"
     inkscape:cy="118.64256"
     inkscape:window-x="-8"
     inkscape:window-y="-8"
     inkscape:window-maximized="1"
     inkscape:current-layer="svg9"
     fit-margin-top="0"
     fit-margin-left="0"
     fit-margin-right="0"
     fit-margin-bottom="0" />
  <path
     style="font-size:12px;vector-effect:non-scaling-stroke;fill:none;fill-rule:evenodd;stroke:#ff0000;stroke-width:0.75599999;stroke-linecap:round;stroke-miterlimit:4;stroke-dasharray:none;stroke-opacity:1"
     d="M 0.37890625 261.16602 L 0.37890625 295.18164 L 15.496094 295.18164 L 15.496094 340.53711 L 34.394531 340.53711 L 34.394531 355.6543 L 15.496094 355.6543 L 0.37890625 355.6543 L 0.37890625 416.12695 L 15.496094 416.12695 L 34.394531 416.12695 L 34.394531 431.24414 L 15.496094 431.24414 L 15.496094 476.59766 L 0.37890625 476.59766 L 0.37890625 510.61328 L 34.394531 510.61328 L 34.394531 495.49609 L 94.865234 495.49609 L 94.867188 495.49609 L 94.867188 510.61328 L 155.33789 510.61328 L 155.33789 495.49609 L 155.33984 495.49609 L 215.81055 495.49609 L 215.8125 495.49609 L 215.8125 510.61328 L 249.82617 510.61328 L 249.82617 476.59766 L 234.70898 476.59766 L 234.70898 431.24414 L 215.8125 431.24414 L 215.8125 416.12695 L 234.70898 416.12695 L 249.82617 416.12695 L 249.82617 355.6543 L 234.70898 355.6543 L 215.8125 355.6543 L 215.8125 340.53711 L 234.70898 340.53711 L 234.70898 295.18164 L 249.82617 295.18164 L 249.82617 261.16602 L 215.8125 261.16602 L 215.8125 276.28516 L 155.33984 276.28516 L 155.33984 276.2832 L 155.33789 276.2832 L 155.33789 261.16602 L 94.867188 261.16602 L 94.867188 276.28516 L 34.394531 276.28516 L 34.394531 276.2832 L 34.394531 261.16602 L 0.37890625 261.16602 z "
     transform="scale(0.26458333)"
     id="front_outsideCutPath" />
  <path
     style="font-size:12px;vector-effect:non-scaling-stroke;fill:none;fill-rule:evenodd;stroke:#ff0000;stroke-width:0.75590551;stroke-linecap:round;stroke-linejoin:miter;stroke-miterlimit:4;stroke-dasharray:none"
     d="M 276.28516 261.16602 L 276.28516 295.18164 L 261.16602 295.18164 L 261.16602 340.53711 L 295.18164 340.53711 L 295.18164 355.6543 L 276.28516 355.6543 L 276.28516 416.12695 L 295.18164 416.12695 L 295.18164 431.24414 L 261.16602 431.24414 L 261.16602 476.59961 L 276.28516 476.59961 L 276.28516 510.61523 L 295.18164 510.61523 L 295.18164 495.49609 L 355.6543 495.49609 L 355.6543 510.61523 L 416.12695 510.61523 L 416.12695 495.49609 L 476.59961 495.49609 L 476.59961 510.61523 L 495.49609 510.61523 L 495.49609 476.59961 L 510.61523 476.59961 L 510.61523 431.24414 L 476.59961 431.24414 L 476.59961 416.12695 L 495.49609 416.12695 L 495.49609 355.6543 L 476.59961 355.6543 L 476.59961 340.53711 L 510.61523 340.53711 L 510.61523 295.18164 L 495.49609 295.18164 L 495.49609 261.16602 L 476.59961 261.16602 L 476.59961 276.28516 L 416.12695 276.28516 L 416.12695 261.16602 L 355.6543 261.16602 L 355.6543 276.28516 L 295.18164 276.28516 L 295.18164 261.16602 L 276.28516 261.16602 z M 363.31836 424.75195 L 408.46289 424.75195 C 410.59319 424.75195 412.30664 426.46736 412.30664 428.59766 L 412.30664 452.1582 C 412.30664 454.2885 410.59319 456.00391 408.46289 456.00391 L 363.31836 456.00391 C 361.18806 456.00391 359.47266 454.2885 359.47266 452.1582 L 359.47266 428.59766 C 359.47266 426.46736 361.18806 424.75195 363.31836 424.75195 z "
     transform="scale(0.26458333)"
     id="left_outsideCutPath" />
  <path
     style="font-size:12px;vector-effect:non-scaling-stroke;fill:none;fill-rule:evenodd;stroke:#ff0000;stroke-width:0.75590551;stroke-linecap:round;stroke-linejoin:miter;stroke-miterlimit:4;stroke-dasharray:none"
     d="M 555.96875 261.16602 L 555.96875 276.2832 L 537.07031 276.2832 L 537.07031 295.18164 L 521.95312 295.18164 L 521.95312 340.53516 L 521.95312 355.6543 L 537.07031 355.6543 L 537.07031 416.12695 L 521.95312 416.12695 L 521.95312 431.24414 L 521.95312 476.59766 L 537.07031 476.59766 L 537.07031 495.49609 L 555.96875 495.49609 L 555.96875 510.61328 L 601.32227 510.61328 L 616.44141 510.61328 L 616.44141 495.49609 L 676.91406 495.49609 L 676.91406 510.61328 L 692.03125 510.61328 L 737.38672 510.61328 L 737.38672 495.49609 L 756.2832 495.49609 L 756.2832 476.59766 L 771.40234 476.59766 L 771.40234 431.24414 L 771.40234 416.12695 L 756.2832 416.12695 L 756.2832 355.6543 L 771.40234 355.6543 L 771.40234 340.53516 L 771.40234 295.18164 L 756.2832 295.18164 L 756.2832 276.2832 L 737.38672 276.2832 L 737.38672 261.16602 L 692.03125 261.16602 L 676.91406 261.16602 L 676.91406 276.2832 L 616.44141 276.2832 L 616.44141 261.16602 L 601.32227 261.16602 L 555.96875 261.16602 z "
     transform="scale(0.26458333)"
     id="top_outsideCutPath" />
  <path
     id="path825"
     d="m 94.602124,102.1 c 2.29674,0 4.16548,-1.86874 4.16548,-4.165486 0,-2.296745 -1.86874,-4.165487 -4.16548,-4.165487 -2.29675,0 -4.16549,1.868742 -4.16549,4.165487 0,2.296746 1.86874,4.165486 4.16549,4.165486 z M 112.93027,95.435222 H 101.2669 c -0.46028,0 -0.83309,0.372811 -0.83309,0.833097 V 103.7662 H 88.770434 V 92.93593 c 0,-0.460286 -0.37281,-0.833097 -0.83309,-0.833097 h -1.6662 c -0.46028,0 -0.83309,0.372811 -0.83309,0.833097 v 18.32814 c 0,0.46029 0.37281,0.8331 0.83309,0.8331 h 1.6662 c 0.46028,0 0.83309,-0.37281 0.83309,-0.8331 v -2.49929 h 26.659126 v 2.49929 c 0,0.46029 0.37281,0.8331 0.8331,0.8331 h 1.66619 c 0.46029,0 0.8331,-0.37281 0.8331,-0.8331 v -9.99716 c 0,-3.220969 -2.61072,-5.831688 -5.83168,-5.831688 z"
     inkscape:connector-curvature="0"
     style="fill:#000000" />
  <path
     id="path869"
     d="m 26.388361,96.398491 c 0.0677,0.400928 0.41655,0.702926 0.8331,0.702926 h 0.85913 c 0.510269,0 0.916409,-0.442583 0.84872,-0.937235 -0.19786,-1.468334 -0.85393,-2.822117 -1.90571,-3.889523 -0.74979,-0.765408 -1.22882,-1.733883 -1.37461,-2.785669 -0.0573,-0.411342 -0.41134,-0.718546 -0.83831,-0.718546 h -0.85392 c -0.51027,0 -0.90599,0.442583 -0.84872,0.937234 0.20307,1.660988 0.93724,3.191804 2.11398,4.394589 0.62483,0.635236 1.02576,1.431886 1.16634,2.296224 z m 5.83168,0 c 0.0677,0.400928 0.41655,0.702926 0.8331,0.702926 h 0.85913 c 0.51027,0 0.91641,-0.442583 0.84872,-0.937235 -0.19786,-1.468334 -0.85393,-2.822117 -1.90571,-3.889523 -0.74979,-0.765408 -1.22882,-1.733883 -1.37461,-2.785669 -0.0573,-0.411342 -0.41134,-0.718546 -0.83831,-0.718546 h -0.85392 c -0.51027,0 -0.9112,0.442583 -0.84872,0.937234 0.20307,1.660988 0.93724,3.191804 2.11399,4.394589 0.62482,0.635236 1.02575,1.431886 1.16633,2.296224 z m 8.377836,2.369121 H 21.436641 c -0.92162,0 -1.6662,0.744584 -1.6662,1.666198 v 9.99717 c 0,2.75964 2.23895,4.99858 4.99859,4.99858 H 34.7662 c 2.75963,0 4.99858,-2.23894 4.99858,-4.99858 h 0.833096 c 3.217841,0 5.831683,-2.61384 5.831683,-5.83168 0,-3.21784 -2.613842,-5.831688 -5.831682,-5.831688 z m 0,8.330978 h -0.833096 v -4.99858 h 0.833096 c 1.379818,0 2.499294,1.11947 2.499294,2.49929 0,1.37982 -1.119476,2.49929 -2.499294,2.49929 z"
     inkscape:connector-curvature="0"
     style="fill:#000000" />
  <path
     id="path880"
     d="m 165.26836,38.098584 c -0.12444,0 -0.24889,0.01822 -0.3676,0.05676 -0.67481,0.219208 -1.38451,0.359793 -2.13169,0.359793 -0.74718,0 -1.45688,-0.140585 -2.13221,-0.359793 -0.11871,-0.03853 -0.24264,-0.05676 -0.36708,-0.05676 -3.23138,0 -5.84887,2.628421 -5.83168,5.863963 0.007,1.367322 1.13145,2.46701 2.49929,2.46701 h 11.66336 c 1.36784,0 2.492,-1.099688 2.49929,-2.46701 0.0172,-3.235542 -2.6003,-5.863963 -5.83168,-5.863963 z m -2.49929,-1.666195 c 2.76068,0 4.99858,-2.237908 4.99858,-4.998584 0,-2.760676 -2.2379,-4.998584 -4.99858,-4.998584 -2.76068,0 -4.99858,2.237908 -4.99858,4.998584 0,2.760676 2.2379,4.998584 4.99858,4.998584 z M 185.2627,19.770443 h -19.99434 c -1.37825,0 -2.49929,1.158526 -2.49929,2.582081 v 2.416503 c 1.21945,0 2.34829,0.353025 3.33239,0.92682 v -2.593015 h 18.32814 v 14.995752 h -3.33239 v -3.33239 h -6.66478 v 3.33239 h -3.96971 c 0.99451,0.869024 1.72452,2.016616 2.06661,3.332389 h 12.73337 c 1.37825,0 2.49929,-1.158526 2.49929,-2.582081 V 22.352524 c 0,-1.423555 -1.12104,-2.582081 -2.49929,-2.582081 z"
     inkscape:connector-curvature="0"
     style="fill:#000000" />
  <path
     id="path891"
     d="m 113.20065,40.780116 -6.10244,-9.814928 v -7.862356 h 0.41655 c 0.69251,0 1.24964,-0.557134 1.24964,-1.249646 v -0.833097 c 0,-0.692512 -0.55713,-1.249646 -1.24964,-1.249646 H 96.684485 c -0.69251,0 -1.24964,0.557134 -1.24964,1.249646 v 0.833097 c 0,0.692512 0.55713,1.249646 1.24964,1.249646 h 0.41655 v 7.862356 l -6.10243,9.814928 c -1.52561,2.452429 0.2343,5.649441 3.12932,5.649441 h 15.943395 c 2.90022,0 4.65493,-3.202219 3.12933,-5.649441 z m -15.584135,-4.347727 2.509715,-4.040522 c 0.19265,-0.270757 0.302,-0.603996 0.302,-0.958062 v -8.330973 h 3.33238 v 8.330973 c 0,0.359273 0.11456,0.687305 0.302,0.958062 l 2.50971,4.040522 z"
     inkscape:connector-curvature="0"
     style="fill:#000000" />
  <path
     id="path902"
     d="m 21.436636,31.433806 c 1.83802,0 3.33239,-1.494369 3.33239,-3.33239 0,-1.838021 -1.49437,-3.332389 -3.33239,-3.332389 -1.83802,0 -3.33239,1.494368 -3.33239,3.332389 0,1.838021 1.49437,3.33239 3.33239,3.33239 z m 23.326725,0 c 1.83802,0 3.332388,-1.494369 3.332388,-3.33239 0,-1.838021 -1.494368,-3.332389 -3.332388,-3.332389 -1.838023,0 -3.332391,1.494368 -3.332391,3.332389 0,1.838021 1.494368,3.33239 3.332391,3.33239 z M 46.429554,33.1 h -3.332389 c -0.916407,0 -1.744297,0.369687 -2.348293,0.968476 2.098364,1.150715 3.587525,3.228252 3.910351,5.696302 h 3.436526 c 0.921613,0 1.666195,-0.74458 1.666195,-1.666194 v -1.666195 c 0,-1.838021 -1.49437,-3.332389 -3.33239,-3.332389 z m -13.329558,0 c 3.22305,0 5.831682,-2.608636 5.831682,-5.831681 0,-3.223045 -2.608632,-5.831681 -5.831682,-5.831681 -3.22304,0 -5.83168,2.608636 -5.83168,5.831681 0,3.223045 2.60864,5.831681 5.83168,5.831681 z m 3.99887,1.666195 h -0.43217 c -1.08303,0.520686 -2.28581,0.833097 -3.5667,0.833097 -1.28089,0 -2.47846,-0.312411 -3.5667,-0.833097 h -0.43217 c -3.31156,0 -5.9983,2.686739 -5.9983,5.9983 v 1.499575 c 0,1.379818 1.11948,2.499292 2.4993,2.499292 h 14.995747 c 1.379818,0 2.499292,-1.119474 2.499292,-2.499292 v -1.499575 c 0,-3.311561 -2.686739,-5.9983 -5.998299,-5.9983 z M 25.451126,34.068476 C 24.847126,33.469687 24.019236,33.1 23.102826,33.1 h -3.33239 c -1.83802,0 -3.33238,1.494368 -3.33238,3.332389 v 1.666195 c 0,0.921614 0.74458,1.666194 1.66619,1.666194 h 3.43132 c 0.32803,-2.46805 1.81719,-4.545587 3.91556,-5.696302 z"
     inkscape:connector-curvature="0"
     style="fill:#000000" />
  <path
     style="font-size:12px;vector-effect:non-scaling-stroke;fill:none;fill-rule:evenodd;stroke:#ff0000;stroke-width:0.75590551;stroke-linecap:round;stroke-miterlimit:4;stroke-dasharray:none"
     d="M 782.26758 261.16602 L 782.26758 295.18164 L 797.38477 295.18164 L 797.38477 326.43359 L 804.23242 326.43359 C 806.36271 326.43359 808.07812 328.14897 808.07812 330.2793 L 808.07812 441.5 C 808.07812 443.63029 806.36271 445.3457 804.23242 445.3457 L 797.38477 445.3457 L 797.38477 476.59961 L 782.26758 476.59961 L 782.26758 510.61523 L 816.2832 510.61523 L 816.2832 495.49609 L 928.16406 495.49609 C 928.02535 495.09834 927.93555 494.67863 927.93555 494.23242 L 927.93555 477.86914 C 927.93555 475.73889 929.65096 474.02539 931.78125 474.02539 L 950.8457 474.02539 C 952.97603 474.02539 954.69141 475.73889 954.69141 477.86914 L 954.69141 494.23242 C 954.69141 494.67867 954.59965 495.09826 954.46094 495.49609 L 997.69922 495.49609 L 997.69922 510.61523 L 1031.7148 510.61523 L 1031.7148 476.59961 L 1016.5977 476.59961 L 1016.5977 445.3457 L 1009.748 445.3457 C 1007.6177 445.3457 1005.9023 443.63029 1005.9023 441.5 L 1005.9023 330.2793 C 1005.9023 328.14897 1007.6177 326.43359 1009.748 326.43359 L 1016.5977 326.43359 L 1016.5977 295.18164 L 1031.7148 295.18164 L 1031.7148 261.16602 L 997.69922 261.16602 L 997.69922 276.2832 L 816.2832 276.2832 L 816.2832 261.16602 L 782.26758 261.16602 z M 877.66797 281.36914 C 879.67323 281.36914 881.29883 282.99474 881.29883 285 C 881.29883 287.00527 879.67323 288.63086 877.66797 288.63086 C 875.6627 288.63086 874.03711 287.00527 874.03711 285 C 874.03711 282.9947 875.66266 281.36914 877.66797 281.36914 z M 968.80273 281.52148 C 970.808 281.52148 972.43359 283.14707 972.43359 285.15234 C 972.43359 287.1576 970.808 288.7832 968.80273 288.7832 C 966.79747 288.7832 965.17188 287.1576 965.17188 285.15234 C 965.17188 283.14703 966.79743 281.52148 968.80273 281.52148 z M 967.84375 323.73047 L 975.30273 323.73047 C 977.43303 323.73047 979.14844 325.44393 979.14844 327.57422 L 979.14844 355.75 C 979.14844 357.8803 977.43303 359.5957 975.30273 359.5957 L 967.84375 359.5957 C 965.71342 359.5957 963.99805 357.8803 963.99805 355.75 L 963.99805 327.57422 C 963.99805 325.44393 965.71342 323.73047 967.84375 323.73047 z M 871.18359 332.99805 L 878.64258 332.99805 C 880.77287 332.99805 882.48828 334.71346 882.48828 336.84375 L 882.48828 413.7793 C 882.48828 415.90963 880.77287 417.625 878.64258 417.625 L 871.18359 417.625 C 869.0533 417.625 867.33789 415.90963 867.33789 413.7793 L 867.33789 336.84375 C 867.33789 334.71346 869.0533 332.99805 871.18359 332.99805 z M 967.84375 429.51562 L 975.30273 429.51562 C 977.43303 429.51562 979.14844 431.23104 979.14844 433.36133 L 979.14844 461.53711 C 979.14844 463.6674 977.43303 465.38277 975.30273 465.38281 L 967.84375 465.38281 C 965.71342 465.38281 963.99805 463.6674 963.99805 461.53711 L 963.99805 433.36133 C 963.99805 431.23104 965.71342 429.51562 967.84375 429.51562 z M 877.28516 481.98242 C 879.29046 481.98242 880.91602 483.60798 880.91602 485.61328 C 880.91602 487.61855 879.29042 489.24414 877.28516 489.24414 C 875.27989 489.24414 873.6543 487.61855 873.6543 485.61328 C 873.6543 483.60802 875.27989 481.98242 877.28516 481.98242 z M 968.41992 482.13672 C 970.42519 482.13672 972.05078 483.76231 972.05078 485.76758 C 972.05078 487.77288 970.42519 489.39844 968.41992 489.39844 C 966.41462 489.39844 964.78906 487.77288 964.78906 485.76758 C 964.78906 483.76231 966.41466 482.13672 968.41992 482.13672 z "
     transform="scale(0.26458333)"
     id="front_outsideCutPath-5" />
  <path
     style="font-size:12px;vector-effect:non-scaling-stroke;fill:none;fill-rule:evenodd;stroke:#ff0000;stroke-width:0.75590551;stroke-linecap:round;stroke-miterlimit:4;stroke-dasharray:none"
     d="M 276.2832 0.37890625 L 276.2832 34.394531 L 261.16602 34.394531 L 261.16602 79.748047 L 295.18164 79.748047 L 295.18164 94.865234 L 276.2832 94.865234 L 276.2832 155.33789 L 295.18164 155.33789 L 295.18164 170.45703 L 261.16602 170.45703 L 261.16602 215.81055 L 276.2832 215.81055 L 276.2832 249.82617 L 295.18164 249.82617 L 295.18164 234.70898 L 355.6543 234.70898 L 355.6543 249.82617 L 416.12695 249.82617 L 416.12695 234.70898 L 476.59766 234.70898 L 476.59766 249.82617 L 495.49609 249.82617 L 495.49609 215.81055 L 510.61328 215.81055 L 510.61328 170.45703 L 476.59766 170.45703 L 476.59766 155.33789 L 495.49609 155.33789 L 495.49609 94.865234 L 476.59766 94.865234 L 476.59766 79.748047 L 510.61328 79.748047 L 510.61328 34.394531 L 495.49609 34.394531 L 495.49609 0.37890625 L 476.59766 0.37890625 L 476.59766 15.496094 L 416.12695 15.496094 L 416.12695 0.37890625 L 355.6543 0.37890625 L 355.6543 15.496094 L 295.18164 15.496094 L 295.18164 0.37890625 L 276.2832 0.37890625 z "
     transform="scale(0.26458333)"
     id="left_outsideCutPath-6" />
  <path
     style="font-size:12px;vector-effect:non-scaling-stroke;fill:none;fill-rule:evenodd;stroke:#ff0000;stroke-width:0.7559055;stroke-linecap:round;stroke-miterlimit:4;stroke-dasharray:none"
     d="M 555.96875 0.37890625 L 555.96875 15.496094 L 537.07031 15.496094 L 537.07031 34.394531 L 521.95312 34.394531 L 521.95312 79.748047 L 521.95312 94.865234 L 537.07031 94.865234 L 537.07031 155.33789 L 521.95312 155.33789 L 521.95312 170.45703 L 521.95312 215.81055 L 537.07031 215.81055 L 537.07031 234.70898 L 555.96875 234.70898 L 555.96875 249.82617 L 601.32227 249.82617 L 616.44141 249.82617 L 616.44141 234.70898 L 676.91406 234.70898 L 676.91406 249.82617 L 692.03125 249.82617 L 737.38672 249.82617 L 737.38672 234.70898 L 756.2832 234.70898 L 756.2832 215.81055 L 771.40234 215.81055 L 771.40234 170.45703 L 771.40234 155.33789 L 756.2832 155.33789 L 756.2832 94.865234 L 771.40234 94.865234 L 771.40234 79.748047 L 771.40234 34.394531 L 756.2832 34.394531 L 756.2832 15.496094 L 737.38672 15.496094 L 737.38672 0.37890625 L 692.03125 0.37890625 L 676.91406 0.37890625 L 676.91406 15.496094 L 616.44141 15.496094 L 616.44141 0.37890625 L 601.32227 0.37890625 L 555.96875 0.37890625 z "
     id="top_outsideCutPath-2"
     transform="scale(0.26458333)" />
  <path
     style="font-size:12px;vector-effect:non-scaling-stroke;fill:none;fill-rule:evenodd;stroke:#ff0000;stroke-width:0.75590551;stroke-linecap:round;stroke-miterlimit:4;stroke-dasharray:none"
     d="M 782.26758 0.37890625 L 782.26758 34.396484 L 797.38477 34.396484 L 797.38477 65.648438 L 804.23438 65.648438 C 806.36467 65.648438 808.08008 67.363851 808.08008 69.494141 L 808.08008 180.71484 C 808.08008 182.84514 806.36467 184.56055 804.23438 184.56055 L 797.38477 184.56055 L 797.38477 215.8125 L 782.26758 215.8125 L 782.26758 249.82812 L 816.2832 249.82812 L 816.2832 234.71094 L 847.53711 234.71094 L 847.53711 227.86133 C 847.53711 225.73103 849.25252 224.01563 851.38281 224.01562 L 962.60352 224.01562 C 964.73377 224.01562 966.44922 225.73103 966.44922 227.86133 L 966.44922 234.71094 L 997.70117 234.71094 L 997.70117 249.82812 L 1031.7168 249.82812 L 1031.7168 215.8125 L 1016.5977 215.8125 L 1016.5977 184.56055 L 1009.75 184.56055 C 1007.6197 184.56055 1005.9043 182.84514 1005.9043 180.71484 L 1005.9043 69.494141 C 1005.9043 67.363851 1007.6197 65.648438 1009.75 65.648438 L 1016.5977 65.648438 L 1016.5977 34.396484 L 1031.7168 34.396484 L 1031.7168 0.37890625 L 997.70117 0.37890625 L 997.70117 15.498047 L 966.44922 15.498047 L 966.44922 22.347656 C 966.44922 24.477946 964.73377 26.193359 962.60352 26.193359 L 851.38281 26.193359 C 849.25252 26.193359 847.53711 24.477946 847.53711 22.347656 L 847.53711 15.498047 L 816.2832 15.498047 L 816.2832 0.37890625 L 782.26758 0.37890625 z "
     transform="scale(0.26458333)"
     id="front_outsideCutPath-5-2" />
  <path
     inkscape:connector-curvature="0"
     style="fill:#000000;stroke-width:0.05374809;fill-opacity:1"
     d="m 183.53439,105.30339 -2.28967,-1.32221 c 0.23112,-1.24695 0.23112,-2.52616 0,-3.77311 l 2.28967,-1.322211 c 0.26337,-0.15049 0.38161,-0.46223 0.29562,-0.75247 -0.59661,-1.913429 -1.61245,-3.644119 -2.94002,-5.084569 -0.20425,-0.22036 -0.53748,-0.27411 -0.79548,-0.12362 l -2.28966,1.32221 c -0.96209,-0.82772 -2.06931,-1.46733 -3.26789,-1.88656 v -2.63903 c 0,-0.30099 -0.20962,-0.56436 -0.50523,-0.62886 -1.97256,-0.44073 -3.99348,-0.41923 -5.86929,0 -0.29562,0.0645 -0.50523,0.32787 -0.50523,0.62886 v 2.6444 c -1.19321,0.42461 -2.30042,1.06421 -3.26789,1.88656 l -2.28429,-1.3222 c -0.26337,-0.1505 -0.59123,-0.10212 -0.79547,0.12362 -1.32758,1.43507 -2.34342,3.16576 -2.94002,5.084569 -0.0914,0.29024 0.0323,0.60198 0.29561,0.75247 l 2.28967,1.322201 c -0.23112,1.24696 -0.23112,2.52616 0,3.77312 l -2.28967,1.3222 c -0.26336,0.1505 -0.38161,0.46224 -0.29561,0.75248 0.5966,1.91343 1.61244,3.64412 2.94002,5.08456 0.20424,0.22037 0.53748,0.27412 0.79547,0.12362 l 2.28967,-1.3222 c 0.96209,0.82772 2.0693,1.46732 3.26788,1.88656 v 2.6444 c 0,0.30099 0.20962,0.56436 0.50523,0.62886 1.97256,0.44073 3.99349,0.41923 5.8693,0 0.29561,-0.0645 0.50523,-0.32787 0.50523,-0.62886 v -2.6444 c 1.1932,-0.42461 2.30042,-1.06421 3.26788,-1.88656 l 2.28967,1.3222 c 0.26337,0.1505 0.59123,0.10213 0.79547,-0.12362 1.32758,-1.43507 2.34342,-3.16576 2.94002,-5.08456 0.0806,-0.29562 -0.0376,-0.60736 -0.30099,-0.75785 z m -12.43731,1.09108 c -2.37029,0 -4.29984,-1.92955 -4.29984,-4.29984 0,-2.370301 1.92955,-4.299851 4.29984,-4.299851 2.37029,0 4.29985,1.92955 4.29985,4.299851 0,2.37029 -1.92956,4.29984 -4.29985,4.29984 z"
     id="path953" />
  <path
     style="font-size:12px;vector-effect:non-scaling-stroke;fill:none;fill-rule:evenodd;stroke:#ff0000;stroke-width:0.75600004;stroke-linecap:round;stroke-miterlimit:4;stroke-dasharray:none;stroke-opacity:1"
     d="M 0.37695312 0.37890625 L 0.37695312 34.394531 L 15.494141 34.394531 L 15.494141 79.75 L 34.392578 79.75 L 34.392578 94.867188 L 15.494141 94.867188 L 0.37695312 94.867188 L 0.37695312 155.33984 L 15.494141 155.33984 L 34.392578 155.33984 L 34.392578 170.45703 L 15.494141 170.45703 L 15.494141 215.81055 L 0.37695312 215.81055 L 0.37695312 249.82617 L 34.392578 249.82617 L 34.392578 234.70898 L 94.863281 234.70898 L 94.865234 234.70898 L 94.865234 249.82617 L 155.33594 249.82617 L 155.33594 234.70898 L 155.33789 234.70898 L 215.80859 234.70898 L 215.81055 234.70898 L 215.81055 249.82617 L 249.82422 249.82617 L 249.82422 215.81055 L 234.70703 215.81055 L 234.70703 170.45703 L 215.81055 170.45703 L 215.81055 155.33984 L 234.70703 155.33984 L 249.82422 155.33984 L 249.82422 94.867188 L 234.70703 94.867188 L 215.81055 94.867188 L 215.81055 79.75 L 234.70703 79.75 L 234.70703 34.394531 L 249.82422 34.394531 L 249.82422 0.37890625 L 215.81055 0.37890625 L 215.81055 15.498047 L 155.33789 15.498047 L 155.33789 15.496094 L 155.33594 15.496094 L 155.33594 0.37890625 L 94.865234 0.37890625 L 94.865234 15.498047 L 34.392578 15.498047 L 34.392578 15.496094 L 34.392578 0.37890625 L 0.37695312 0.37890625 z "
     transform="scale(0.26458333)"
     id="front_outsideCutPath-3" />
  <path
     inkscape:connector-curvature="0"
     d=""
     style="fill:none;stroke:#000000;stroke-width:0.165987"
     id="path1695" />
  <path
     inkscape:connector-curvature="0"
     d=""
     style="fill:none;stroke:#000000;stroke-width:0.165987"
     id="path1703" />
  <path
     inkscape:connector-curvature="0"
     d=""
     style="fill:none;stroke:#000000;stroke-width:0.165987"
     id="path1707" />
  <g
     id="g1900"
     transform="matrix(0.64092454,0,0,0.64092454,37.032633,44.85461)"
     style="stroke:#00ff00;stroke-opacity:1">
    <g
       transform="matrix(1.3080826,0,0,1.3080826,-17.843953,-87.176553)"
       id="g1827"
       style="stroke:#00ff00;stroke-opacity:1">
      <path
         inkscape:connector-curvature="0"
         d="m 105.19003,160.75102 v 1.71285 m 0,-1.71285 h 0.73408 l 0.24469,0.0816 0.0816,0.0816 0.0816,0.16312 v 0.16314 l -0.0816,0.16312 -0.0816,0.0816 -0.24469,0.0816 h -0.73408 m 0.57095,0 0.57095,0.89721"
         style="fill:none;stroke:#00ff00;stroke-width:0.08156419;stroke-opacity:1"
         id="path1697" />
      <path
         inkscape:connector-curvature="0"
         d="m 106.82131,161.81136 h 0.97877 v -0.16314 l -0.0816,-0.16312 -0.0816,-0.0816 -0.16314,-0.0816 h -0.24469 l -0.16312,0.0816 -0.16313,0.16313 -0.0816,0.2447 v 0.16312 l 0.0816,0.24469 0.16313,0.16314 0.16312,0.0816 h 0.24469 l 0.16314,-0.0816 0.16312,-0.16314"
         style="fill:none;stroke:#00ff00;stroke-width:0.08156419;stroke-opacity:1"
         id="path1699" />
      <path
         inkscape:connector-curvature="0"
         d="m 108.20791,161.32197 0.48938,1.1419 m 0.48938,-1.1419 -0.48938,1.1419"
         style="fill:none;stroke:#00ff00;stroke-width:0.08156419;stroke-opacity:1"
         id="path1701" />
      <path
         inkscape:connector-curvature="0"
         d="m 110.06574,161.15884 v -0.0816 l 0.0816,-0.16312 0.0816,-0.0816 0.16313,-0.0816 h 0.32625 l 0.16314,0.0816 0.0816,0.0816 0.0816,0.16312 v 0.16314 l -0.0816,0.16312 -0.16313,0.24469 -0.81564,0.81565 h 1.1419"
         style="fill:none;stroke:#00ff00;stroke-width:0.08156419;stroke-opacity:1"
         id="path1705" />
    </g>
    <g
       transform="matrix(0.64277742,0,0,0.64277742,46.291904,23.071632)"
       id="g1773"
       style="stroke:#00ff00;stroke-opacity:1">
      <path
         inkscape:connector-curvature="0"
         d="m 114.24429,162.33678 v -0.16599 l 0.16599,-0.33197 0.16598,-0.16599 0.33198,-0.16598 h 0.66394 l 0.33198,0.16598 0.16599,0.16599 0.16598,0.33197 v 0.33198 l -0.16598,0.33197 -0.33198,0.49796 -1.65987,1.65987 h 2.32382"
         style="fill:none;stroke:#00ff00;stroke-width:0.165987;stroke-opacity:1"
         id="path1709" />
      <path
         inkscape:connector-curvature="0"
         d="m 118.39396,161.50685 -0.49796,0.16598 -0.33197,0.49796 -0.16599,0.82994 v 0.49796 l 0.16599,0.82994 0.33197,0.49796 0.49796,0.16598 h 0.33198 l 0.49796,-0.16598 0.33197,-0.49796 0.16599,-0.82994 v -0.49796 l -0.16599,-0.82994 -0.33197,-0.49796 -0.49796,-0.16598 h -0.33198"
         style="fill:none;stroke:#00ff00;stroke-width:0.165987;stroke-opacity:1"
         id="path1711" />
      <path
         inkscape:connector-curvature="0"
         d="m 121.21574,162.17079 0.33198,-0.16598 0.49796,-0.49796 v 3.48572"
         style="fill:none;stroke:#00ff00;stroke-width:0.165987;stroke-opacity:1"
         id="path1713" />
      <path
         inkscape:connector-curvature="0"
         d="m 126.19535,162.66875 -0.16598,0.49797 -0.33198,0.33197 -0.49796,0.16599 h -0.16599 l -0.49796,-0.16599 -0.33197,-0.33197 -0.16599,-0.49797 v -0.16598 l 0.16599,-0.49796 0.33197,-0.33198 0.49796,-0.16598 h 0.16599 l 0.49796,0.16598 0.33198,0.33198 0.16598,0.66394 v 0.82994 l -0.16598,0.82994 -0.33198,0.49796 -0.49796,0.16598 h -0.33197 l -0.49796,-0.16598 -0.16599,-0.33198"
         style="fill:none;stroke:#00ff00;stroke-width:0.165987;stroke-opacity:1"
         id="path1715" />
    </g>
    <g
       transform="matrix(1.6901395,0,0,1.6901395,-40.579147,-149.82221)"
       id="g1817"
       style="stroke:#00ff00;stroke-opacity:1">
      <path
         inkscape:connector-curvature="0"
         d="m 71.087664,161.50685 -2.323818,3.48572 m 0,-3.48572 h 2.323818 m -2.323818,3.48572 h 2.323818"
         style="fill:none;stroke:#00ff00;stroke-width:0.165987;stroke-opacity:1"
         id="path1675" />
      <path
         inkscape:connector-curvature="0"
         d="m 72.083586,163.66468 h 1.991844 v -0.33198 l -0.165987,-0.33197 -0.165987,-0.16599 -0.331974,-0.16599 h -0.497961 l -0.331974,0.16599 -0.331974,0.33198 -0.165987,0.49796 v 0.33197 l 0.165987,0.49796 0.331974,0.33198 0.331974,0.16598 h 0.497961 l 0.331974,-0.16598 0.331974,-0.33198"
         style="fill:none;stroke:#00ff00;stroke-width:0.165987;stroke-opacity:1"
         id="path1677" />
      <path
         inkscape:connector-curvature="0"
         d="m 75.071352,161.50685 0.165987,0.16598 0.165987,-0.16598 -0.165987,-0.16599 -0.165987,0.16599 m 0.165987,1.1619 v 2.32382"
         style="fill:none;stroke:#00ff00;stroke-width:0.165987;stroke-opacity:1"
         id="path1679" />
      <path
         inkscape:connector-curvature="0"
         d="m 76.731222,161.50685 v 2.82178 l 0.165987,0.49796 0.331974,0.16598 h 0.331974 m -1.327896,-2.32382 h 1.161909"
         style="fill:none;stroke:#00ff00;stroke-width:0.165987;stroke-opacity:1"
         id="path1681" />
      <path
         inkscape:connector-curvature="0"
         d="m 78.391092,162.66875 0.663948,2.32382 m 0.663948,-2.32382 -0.663948,2.32382 m 0.663948,-2.32382 0.663948,2.32382 m 0.663948,-2.32382 -0.663948,2.32382"
         style="fill:none;stroke:#00ff00;stroke-width:0.165987;stroke-opacity:1"
         id="path1683" />
      <path
         inkscape:connector-curvature="0"
         d="m 82.208793,162.66875 v 1.65988 l 0.165987,0.49796 0.331974,0.16598 h 0.497961 l 0.331974,-0.16598 0.497961,-0.49796 m 0,-1.65988 v 2.32382"
         style="fill:none;stroke:#00ff00;stroke-width:0.165987;stroke-opacity:1"
         id="path1685" />
      <path
         inkscape:connector-curvature="0"
         d="m 85.362546,162.66875 v 2.32382 m 0,-1.32789 0.165987,-0.49796 0.331974,-0.33198 0.331974,-0.16599 h 0.497961"
         style="fill:none;stroke:#00ff00;stroke-width:0.165987;stroke-opacity:1"
         id="path1687" />
      <path
         inkscape:connector-curvature="0"
         d="m 88.516299,161.50685 h -0.331974 l -0.331974,0.16598 -0.165987,0.49796 v 2.82178 m -0.497961,-2.32382 h 1.161909"
         style="fill:none;stroke:#00ff00;stroke-width:0.165987;stroke-opacity:1"
         id="path1689" />
      <path
         inkscape:connector-curvature="0"
         d="m 89.346234,163.66468 h 1.991844 v -0.33198 l -0.165987,-0.33197 -0.165987,-0.16599 -0.331974,-0.16599 h -0.497961 l -0.331974,0.16599 -0.331974,0.33198 -0.165987,0.49796 v 0.33197 l 0.165987,0.49796 0.331974,0.33198 0.331974,0.16598 h 0.497961 l 0.331974,-0.16598 0.331974,-0.33198"
         style="fill:none;stroke:#00ff00;stroke-width:0.165987;stroke-opacity:1"
         id="path1691" />
      <path
         inkscape:connector-curvature="0"
         d="m 92.499987,161.50685 v 3.48572"
         style="fill:none;stroke:#00ff00;stroke-width:0.165987;stroke-opacity:1"
         id="path1693" />
      <path
         inkscape:connector-curvature="0"
         d="m 82.383636,161.48363 0.165987,0.16598 0.165987,-0.16598 -0.165987,-0.16599 -0.165987,0.16599"
         style="fill:none;stroke:#00ff00;stroke-width:0.165987;stroke-opacity:1"
         id="path1679-5"
         sodipodi:nodetypes="ccccc" />
      <path
         inkscape:connector-curvature="0"
         d="m 83.508621,161.48363 0.165987,0.16598 0.165987,-0.16598 -0.165987,-0.16599 -0.165987,0.16599"
         style="fill:none;stroke:#00ff00;stroke-width:0.165987;stroke-opacity:1"
         id="path1679-5-6"
         sodipodi:nodetypes="ccccc" />
    </g>
  </g>
</svg>
