<?xml version="1.0" encoding="UTF-8" standalone="no"?>
<svg
   xmlns:dc="http://purl.org/dc/elements/1.1/"
   xmlns:cc="http://creativecommons.org/ns#"
   xmlns:rdf="http://www.w3.org/1999/02/22-rdf-syntax-ns#"
   xmlns:svg="http://www.w3.org/2000/svg"
   xmlns="http://www.w3.org/2000/svg"
   xmlns:sodipodi="http://sodipodi.sourceforge.net/DTD/sodipodi-0.dtd"
   xmlns:inkscape="http://www.inkscape.org/namespaces/inkscape"
   width="264.1958mm"
   height="130.55444mm"
   viewBox="0 0 264.1958 130.55445"
   version="1.1"
   preserveAspectRatio="xMidYMid meet"
   id="svg9"
   sodipodi:docname="lasercut-firebeetle-3mm.svg"
   inkscape:version="0.92.4 (5da689c313, 2019-01-14)">
  <metadata
     id="metadata15">
    <rdf:RDF>
      <cc:Work
         rdf:about="">
        <dc:format>image/svg+xml</dc:format>
        <dc:type
           rdf:resource="http://purl.org/dc/dcmitype/StillImage" />
        <dc:title />
      </cc:Work>
    </rdf:RDF>
  </metadata>
  <defs
     id="defs13" />
  <sodipodi:namedview
     pagecolor="#ffffff"
     bordercolor="#666666"
     borderopacity="1"
     objecttolerance="10"
     gridtolerance="10"
     guidetolerance="10"
     inkscape:pageopacity="0"
     inkscape:pageshadow="2"
     inkscape:window-width="2556"
     inkscape:window-height="1401"
     id="namedview11"
     showgrid="false"
     inkscape:zoom="2.6164696"
     inkscape:cx="394.36499"
     inkscape:cy="336.4712"
     inkscape:window-x="1920"
     inkscape:window-y="18"
     inkscape:window-maximized="0"
     inkscape:current-layer="svg9"
     fit-margin-top="0"
     fit-margin-left="0"
     fit-margin-right="0"
     fit-margin-bottom="0" />
  <path
     style="font-size:12px;vector-effect:non-scaling-stroke;fill:none;fill-rule:evenodd;stroke:#ff0000;stroke-width:0.20002499;stroke-linecap:round;stroke-miterlimit:4;stroke-dasharray:none"
     d="m 0.1000125,66.454508 v 7.999979 l 3.0000082,-2.65e-4 V 87.454371 H 8.100232 v 2.999795 l -8.0002195,2.65e-4 v 16.000039 l 3.0000082,-2.6e-4 H 8.100232 v 3.00009 H 3.1000207 v 12.99945 l -3.0000082,2.6e-4 v 8.00042 l 8.0002195,-2.6e-4 v -3.00021 h 15.99954 5.29e-4 v 3.00021 h 15.99954 v -3.00021 h 5.3e-4 15.999541 5.3e-4 v 3.00021 l 7.999589,2.6e-4 v -8.00042 l -2.999935,-2.6e-4 V 109.4543 h -4.999694 v -3.00009 l 7.99959,2.6e-4 V 90.454431 l -7.99959,-2.65e-4 v -2.999909 h 4.999694 V 74.454109 l 2.999896,2.64e-4 v -7.999978 l -7.99959,-2.65e-4 v 3.000285 H 40.100344 v -5.29e-4 h -5.29e-4 V 66.45413 H 24.100289 v 3.000285 H 8.100232 v -5.29e-4 -2.999767 z"
     id="front_outsideCutPath"
     inkscape:connector-curvature="0"
     sodipodi:nodetypes="cccccccccccccccccccccccccccccccccccccccccccccccccccc" />
  <path
     style="font-size:12px;vector-effect:non-scaling-stroke;fill:none;fill-rule:evenodd;stroke:#ff0000;stroke-width:0.2;stroke-linecap:round;stroke-linejoin:miter;stroke-miterlimit:4;stroke-dasharray:none"
     d="m 69.454625,66.454312 v 7.999796 l -3.000449,1.19e-4 v 13.000146 l 8.000143,-1.19e-4 v 2.999912 H 69.454625 V 106.4542 h 4.999694 v 2.99945 l -8.000143,1.2e-4 v 13.00061 l 3.000449,-1.2e-4 v 8.00004 h 4.999694 v -3.00034 h 16.000057 v 3.00034 h 16.000044 v -3.00034 h 16.00006 v 3.00034 h 4.99969 v -8.00004 l 2.99999,1.2e-4 v -13.00061 l -7.99968,-1.2e-4 v -2.99945 h 4.99969 V 90.454166 h -4.99969 v -2.999912 l 7.99968,1.19e-4 V 74.454227 l -2.99999,-1.19e-4 v -7.999796 h -4.99969 v 3.000103 H 106.45442 V 66.454312 H 90.454376 v 3.000103 H 74.454319 v -3.000103 z m 23.027534,41.281608 h 11.944471 c 0.56365,0 1.017,0.45387 1.017,1.01751 v 6.23373 c 0,0.56364 -0.45335,1.01751 -1.017,1.01751 H 92.482159 c -0.563642,0 -1.017508,-0.45387 -1.017508,-1.01751 v -6.23373 c 0,-0.56364 0.453866,-1.01751 1.017508,-1.01751 z"
     id="left_outsideCutPath"
     inkscape:connector-curvature="0"
     sodipodi:nodetypes="cccccccccccccccccccccccccccccccccccccccccccccsssssssss" />
  <path
     style="font-size:12px;vector-effect:non-scaling-stroke;fill:none;fill-rule:evenodd;stroke:#ff0000;stroke-width:0.2;stroke-linecap:round;stroke-linejoin:miter;stroke-miterlimit:4;stroke-dasharray:none"
     d="m 141.33755,66.454312 v 2.999584 h -5.00022 v 5.000212 l -2.99985,2.65e-4 v 16.000058 l 2.99985,-2.65e-4 V 106.4542 l -2.99985,2.7e-4 v 15.99954 l 2.99985,-2.6e-4 v 5.00021 h 5.00022 v 2.99934 h 16.00005 v -2.99934 h 16.00006 v 2.99934 h 16.00006 v -2.99934 h 4.99969 v -5.00021 l 3.00007,2.6e-4 v -15.99954 l -3.00007,-2.7e-4 V 90.454166 l 3.00007,2.65e-4 V 74.454373 l -3.00007,-2.65e-4 v -5.000212 h -4.99969 v -2.999584 h -16.00006 v 2.999584 H 157.3376 v -2.999584 z"
     id="top_outsideCutPath"
     inkscape:connector-curvature="0"
     sodipodi:nodetypes="ccccccccccccccccccccccccccccccccccccc" />
  <path
     id="path825"
     d="m 90.956301,98.453958 c 2.29674,0 4.16548,-1.868731 4.16548,-4.165477 0,-2.296745 -1.86874,-4.165487 -4.16548,-4.165487 -2.29675,0 -4.16549,1.868742 -4.16549,4.165487 0,2.296746 1.86874,4.165477 4.16549,4.165477 z M 109.28443,91.789189 H 97.621071 c -0.460277,0 -0.833084,0.372811 -0.833084,0.833097 v 7.497864 H 85.124611 V 89.289897 c 0,-0.460286 -0.37281,-0.833097 -0.83309,-0.833097 h -1.6662 c -0.46028,0 -0.83309,0.372811 -0.83309,0.833097 v 18.328123 c 0,0.46029 0.37281,0.8331 0.83309,0.8331 h 1.6662 c 0.46028,0 0.83309,-0.37281 0.83309,-0.8331 v -2.49929 h 26.659109 v 2.49929 c 0,0.46029 0.37281,0.8331 0.8331,0.8331 h 1.66619 c 0.46029,0 0.8331,-0.37281 0.8331,-0.8331 v -9.997149 c 0,-3.220963 -2.61072,-5.831682 -5.83168,-5.831682 z"
     inkscape:connector-curvature="0"
     style="fill:#000000" />
  <path
     id="path869"
     d="m 25.388373,92.752458 c 0.0677,0.400928 0.41655,0.702926 0.8331,0.702926 h 0.85913 c 0.510269,0 0.916409,-0.442583 0.84872,-0.937235 -0.19786,-1.468334 -0.85393,-2.822117 -1.90571,-3.889523 -0.74979,-0.765408 -1.22882,-1.733883 -1.37461,-2.785669 -0.0573,-0.411342 -0.41134,-0.718546 -0.83831,-0.718546 h -0.85392 c -0.51027,0 -0.90599,0.442583 -0.84872,0.937234 0.20307,1.660988 0.93724,3.191804 2.11398,4.394589 0.62483,0.635236 1.02576,1.431886 1.16634,2.296224 z m 5.83168,0 c 0.0677,0.400928 0.41655,0.702926 0.8331,0.702926 h 0.85913 c 0.51027,0 0.91641,-0.442583 0.84872,-0.937235 -0.19786,-1.468334 -0.85393,-2.822117 -1.90571,-3.889523 -0.74979,-0.765408 -1.22882,-1.733883 -1.37461,-2.785669 -0.0573,-0.411342 -0.41134,-0.718546 -0.83831,-0.718546 h -0.85392 c -0.51027,0 -0.9112,0.442583 -0.84872,0.937234 0.20307,1.660988 0.93724,3.191804 2.11399,4.394589 0.62482,0.635236 1.02575,1.431886 1.16633,2.296224 z m 8.377836,2.369121 H 20.436653 c -0.92162,0 -1.6662,0.744584 -1.6662,1.666198 v 9.997153 c 0,2.75964 2.23895,4.99858 4.99859,4.99858 h 9.997169 c 2.75963,0 4.99858,-2.23894 4.99858,-4.99858 h 0.833096 c 3.217841,0 5.831683,-2.61384 5.831683,-5.83168 0,-3.217829 -2.613842,-5.831671 -5.831682,-5.831671 z m 0,8.330961 h -0.833096 v -4.998572 h 0.833096 c 1.379818,0 2.499294,1.119464 2.499294,2.499282 0,1.37982 -1.119476,2.49929 -2.499294,2.49929 z"
     inkscape:connector-curvature="0"
     style="fill:#000000" />
  <path
     id="path902"
     d="m 20.436648,30.433608 c 1.83802,0 3.33239,-1.494369 3.33239,-3.33239 0,-1.838021 -1.49437,-3.332389 -3.33239,-3.332389 -1.83802,0 -3.33239,1.494368 -3.33239,3.332389 0,1.838021 1.49437,3.33239 3.33239,3.33239 z m 23.326725,0 c 1.83802,0 3.332388,-1.494369 3.332388,-3.33239 0,-1.838021 -1.494368,-3.332389 -3.332388,-3.332389 -1.838023,0 -3.332391,1.494368 -3.332391,3.332389 0,1.838021 1.494368,3.33239 3.332391,3.33239 z m 1.666193,1.666194 h -3.332389 c -0.916407,0 -1.744297,0.369687 -2.348293,0.968476 2.098364,1.150715 3.587525,3.228252 3.910351,5.696302 h 3.436526 c 0.921613,0 1.666195,-0.74458 1.666195,-1.666194 v -1.666195 c 0,-1.838021 -1.49437,-3.332389 -3.33239,-3.332389 z m -13.329558,0 c 3.22305,0 5.831682,-2.608636 5.831682,-5.831681 0,-3.223045 -2.608632,-5.831681 -5.831682,-5.831681 -3.22304,0 -5.83168,2.608636 -5.83168,5.831681 0,3.223045 2.60864,5.831681 5.83168,5.831681 z m 3.99887,1.666195 h -0.43217 c -1.08303,0.520686 -2.28581,0.833097 -3.5667,0.833097 -1.28089,0 -2.47846,-0.312411 -3.5667,-0.833097 h -0.43217 c -3.31156,0 -5.9983,2.686739 -5.9983,5.9983 v 1.499575 c 0,1.379818 1.11948,2.499292 2.4993,2.499292 h 14.995747 c 1.379818,0 2.499292,-1.119474 2.499292,-2.499292 v -1.499575 c 0,-3.311561 -2.686739,-5.9983 -5.998299,-5.9983 z m -11.64774,-0.697719 c -0.604,-0.598789 -1.43189,-0.968476 -2.3483,-0.968476 h -3.33239 c -1.83802,0 -3.33238,1.494368 -3.33238,3.332389 v 1.666195 c 0,0.921614 0.74458,1.666194 1.66619,1.666194 h 3.43132 c 0.32803,-2.46805 1.81719,-4.545587 3.91556,-5.696302 z"
     inkscape:connector-curvature="0"
     style="fill:#000000" />
  <path
     style="font-size:12px;vector-effect:non-scaling-stroke;fill:none;fill-rule:evenodd;stroke:#ff0000;stroke-width:0.2;stroke-linecap:round;stroke-miterlimit:4;stroke-dasharray:none"
     d="m 200.0958,66.454338 v 7.999888 l 2.99989,-4.9e-5 v 8.268748 h 1.81177 c 0.56364,0 1.01751,0.453858 1.01751,1.017508 v 29.427127 c 0,0.56364 -0.45387,1.01751 -1.01751,1.01751 h -1.81177 v 8.26926 l -2.99989,5e-5 v 7.99994 l 8.0001,-5e-5 v -3.00024 h 29.60181 c -0.0367,-0.10524 -0.0605,-0.21629 -0.0605,-0.33435 v -4.32945 c 0,-0.56363 0.45387,-1.01699 1.01751,-1.01699 h 5.04414 c 0.56365,0 1.01751,0.45336 1.01751,1.01699 v 4.32945 c 0,0.11807 -0.0243,0.22909 -0.061,0.33435 h 11.44013 v 3.00024 l 8.00029,5e-5 v -7.99994 l -3.00008,-5e-5 v -8.26926 h -1.81229 c -0.56365,0 -1.01751,-0.45387 -1.01751,-1.01751 V 83.740433 c 0,-0.56365 0.45386,-1.017508 1.01751,-1.017508 h 1.81229 v -8.268748 l 3.00008,4.9e-5 v -7.999888 l -8.00029,-4.9e-5 v 2.999678 h -47.9996 v -2.999678 z m 24.24149,4.345281 c 0.53056,0 0.96066,0.430107 0.96066,0.960665 0,0.530561 -0.4301,0.960665 -0.96066,0.960665 -0.53056,0 -0.96067,-0.430104 -0.96067,-0.960665 0,-0.530569 0.4301,-0.960665 0.96067,-0.960665 z m 24.11274,0.04031 c 0.53056,0 0.96066,0.430104 0.96066,0.960665 0,0.530558 -0.4301,0.960665 -0.96066,0.960665 -0.53056,0 -0.96067,-0.430107 -0.96067,-0.960665 0,-0.530572 0.4301,-0.960665 0.96067,-0.960665 z m -0.25373,11.167793 h 1.97352 c 0.56364,0 1.01751,0.453352 1.01751,1.016992 v 7.454842 c 0,0.563642 -0.45387,1.017511 -1.01751,1.017511 h -1.97352 c -0.56365,0 -1.01751,-0.453869 -1.01751,-1.017511 v -7.454842 c 0,-0.56364 0.45386,-1.016992 1.01751,-1.016992 z m -25.57467,2.452047 h 1.97352 c 0.56364,0 1.01751,0.453869 1.01751,1.017508 v 20.355843 c 0,0.56365 -0.45387,1.01751 -1.01751,1.01751 h -1.97352 c -0.56364,0 -1.01751,-0.45386 -1.01751,-1.01751 V 85.477277 c 0,-0.563639 0.45387,-1.017508 1.01751,-1.017508 z M 248.1963,109.9967 h 1.97352 c 0.56364,0 1.01751,0.45386 1.01751,1.0175 v 7.45485 c 0,0.56364 -0.45387,1.0175 -1.01751,1.01751 h -1.97352 c -0.56365,0 -1.01751,-0.45387 -1.01751,-1.01751 v -7.45485 c 0,-0.56364 0.45386,-1.0175 1.01751,-1.0175 z m -23.9603,13.88183 c 0.53057,0 0.96067,0.4301 0.96067,0.96067 0,0.53056 -0.43011,0.96066 -0.96067,0.96066 -0.53056,0 -0.96066,-0.4301 -0.96066,-0.96066 0,-0.53056 0.4301,-0.96067 0.96066,-0.96067 z m 24.11274,0.0408 c 0.53056,0 0.96067,0.4301 0.96067,0.96066 0,0.53057 -0.43011,0.96067 -0.96067,0.96067 -0.53057,0 -0.96066,-0.4301 -0.96066,-0.96067 0,-0.53056 0.4301,-0.96066 0.96066,-0.96066 z"
     id="front_outsideCutPath-5"
     inkscape:connector-curvature="0"
     sodipodi:nodetypes="ccccsssscccccccsssssscccccccsssscccccccccsssssssssssssssssssssssssssssssscssssssssssssss" />
  <path
     style="font-size:12px;vector-effect:non-scaling-stroke;fill:none;fill-rule:evenodd;stroke:#ff0000;stroke-width:0.2;stroke-linecap:round;stroke-miterlimit:4;stroke-dasharray:none"
     d="M 141.33755,0.10015027 V 3.0998106 h -5.00022 v 5.0002113 l -2.99985,2.911e-4 v 15.999549 l 2.99985,-2.91e-4 v 16.000057 l -2.99985,2.64e-4 V 56.09995 l 2.99985,-2.65e-4 v 5.00021 h 5.00022 v 2.999264 h 16.00005 v -2.999264 h 16.00006 v 2.999264 h 16.00006 v -2.999264 h 4.99969 v -5.00021 l 3.00007,2.65e-4 V 40.099892 l -3.00007,-2.64e-4 V 24.099562 l 3.00007,2.91e-4 V 8.1003225 l -3.00007,-2.91e-4 V 3.0998106 h -4.99969 V 0.10015027 H 173.33766 V 3.0998106 H 157.3376 V 0.10015027 Z"
     id="top_outsideCutPath-2"
     inkscape:connector-curvature="0"
     sodipodi:nodetypes="ccccccccccccccccccccccccccccccccccccc" />
  <path
     style="font-size:12px;vector-effect:non-scaling-stroke;fill:none;fill-rule:evenodd;stroke:#ff0000;stroke-width:0.2;stroke-linecap:round;stroke-miterlimit:4;stroke-dasharray:none"
     d="M 200.0958,0.10029687 V 8.1005805 l 2.9996,-2.932e-4 v 8.2687447 h 1.81229 c 0.56364,0 1.01751,0.453869 1.01751,1.017508 v 29.427147 c 0,0.56364 -0.45387,1.017508 -1.01751,1.017508 h -1.81229 v 8.268746 l -2.9996,2.93e-4 v 8.000061 l 7.99981,-2.93e-4 v -2.999849 h 8.26926 V 59.28786 c 0,-0.563641 0.45387,-1.017508 1.01751,-1.017508 h 29.42715 c 0.56363,0 1.0175,0.453867 1.0175,1.017508 v 1.812293 h 8.26875 v 2.999849 l 8.00001,2.93e-4 v -8.000061 l -3.00031,-2.93e-4 v -8.268746 h -1.81178 c -0.56364,0 -1.01751,-0.453868 -1.01751,-1.017508 V 17.38654 c 0,-0.563639 0.45387,-1.017508 1.01751,-1.017508 h 1.81178 V 8.1002873 l 3.00031,2.932e-4 V 0.10029687 l -8.00001,-2.932e-4 V 3.100075 h -8.26875 v 1.8122927 c 0,0.5636392 -0.45387,1.0175081 -1.0175,1.0175081 h -29.42715 c -0.56364,0 -1.01751,-0.4538689 -1.01751,-1.0175081 V 3.100075 h -8.26926 V 0.10000367 Z"
     id="front_outsideCutPath-5-2"
     inkscape:connector-curvature="0"
     sodipodi:nodetypes="ccccsssscccccccsssscccccccsssscccccccsssscccc" />
  <path
     inkscape:connector-curvature="0"
     style="fill:#000000;stroke-width:0.05374809;fill-rule:evenodd;stroke:none;fill-opacity:1"
     d="m 177.77187,101.65734 -2.28967,-1.32221 c 0.23112,-1.246948 0.23112,-2.526149 0,-3.773093 l 2.28967,-1.322211 c 0.26337,-0.15049 0.38161,-0.46223 0.29562,-0.75247 -0.59661,-1.913429 -1.61245,-3.644119 -2.94002,-5.084569 -0.20425,-0.22036 -0.53748,-0.27411 -0.79548,-0.12362 l -2.28966,1.32221 c -0.96209,-0.82772 -2.06931,-1.46733 -3.26789,-1.88656 v -2.63903 c 0,-0.30099 -0.20962,-0.56436 -0.50523,-0.62886 -1.97256,-0.44073 -3.99348,-0.41923 -5.86929,0 -0.29562,0.0645 -0.50523,0.32787 -0.50523,0.62886 v 2.6444 c -1.19321,0.42461 -2.30042,1.06421 -3.26789,1.88656 l -2.28429,-1.3222 c -0.26337,-0.1505 -0.59123,-0.10212 -0.79547,0.12362 -1.32758,1.43507 -2.34342,3.16576 -2.94002,5.084569 -0.0914,0.29024 0.0323,0.60198 0.29561,0.75247 l 2.28967,1.322201 c -0.23112,1.246954 -0.23112,2.526145 0,3.773103 l -2.28967,1.3222 c -0.26336,0.1505 -0.38161,0.46224 -0.29561,0.75248 0.5966,1.91343 1.61244,3.64412 2.94002,5.08456 0.20424,0.22037 0.53748,0.27412 0.79547,0.12362 l 2.28967,-1.3222 c 0.96209,0.82772 2.0693,1.46732 3.26788,1.88656 v 2.6444 c 0,0.30099 0.20962,0.56436 0.50523,0.62886 1.97256,0.44073 3.99349,0.41923 5.8693,0 0.29561,-0.0645 0.50523,-0.32787 0.50523,-0.62886 v -2.6444 c 1.1932,-0.42461 2.30042,-1.06421 3.26788,-1.88656 l 2.28967,1.3222 c 0.26337,0.1505 0.59123,0.10213 0.79547,-0.12362 1.32758,-1.43507 2.34342,-3.16576 2.94002,-5.08456 0.0806,-0.29562 -0.0376,-0.60736 -0.30099,-0.75785 z m -12.43731,1.09108 c -2.37029,0 -4.29984,-1.92955 -4.29984,-4.299832 0,-2.370292 1.92955,-4.299842 4.29984,-4.299842 2.37029,0 4.29985,1.92955 4.29985,4.299842 0,2.370282 -1.92956,4.299832 -4.29985,4.299832 z"
     id="path953" />
  <path
     inkscape:connector-curvature="0"
     style="font-size:12px;vector-effect:non-scaling-stroke;fill:none;fill-rule:evenodd;stroke:#ff0000;stroke-width:0.19999999;stroke-linecap:round;stroke-miterlimit:4;stroke-dasharray:none"
     d="M 0.1000125,0.10065297 V 8.1005226 l 2.999675,-4.972e-4 V 21.100149 h 5.000211 v 2.999934 h -5.000211 l -2.999675,4.97e-4 v 16.000054 l 2.999675,-4.97e-4 h 5.000211 v 3.000012 h -5.000211 v 12.99953 l -2.999675,4.97e-4 v 7.99947 l 7.999886,-4.97e-4 v -2.999264 h 15.9995395 5.29e-4 v 2.999264 h 15.999539 v -2.999264 h 5.29e-4 15.999542 5.29e-4 v 2.999264 l 7.999923,4.97e-4 v -7.99947 l -3.000266,-4.97e-4 v -12.99953 h -4.999694 v -3.000012 h 4.999694 l 3.000229,4.97e-4 V 24.10058 l -3.000229,-4.97e-4 h -4.999694 v -2.999934 h 4.999694 V 8.1000254 l 3.000229,4.972e-4 V 0.10065297 l -7.999923,-4.972e-4 V 3.1003314 H 40.100012 v -5.29e-4 h -5.3e-4 V 0.10015577 H 24.099955 V 3.1003314 H 8.0998985 v -5.29e-4 -2.99965763 z"
     id="front_outsideCutPath-3"
     sodipodi:nodetypes="ccccccccccccccccccccccccccccccccccccccccccccccccccccccc" />
  <path
     inkscape:connector-curvature="0"
     d=""
     style="fill:none;stroke:#000000;stroke-width:0.165987"
     id="path1695" />
  <path
     inkscape:connector-curvature="0"
     d=""
     style="fill:none;stroke:#000000;stroke-width:0.165987"
     id="path1703" />
  <path
     inkscape:connector-curvature="0"
     d=""
     style="fill:none;stroke:#000000;stroke-width:0.165987"
     id="path1707" />
  <g
     id="g1900"
     transform="matrix(0.64092454,0,0,0.64092454,33.38681,41.208577)"
     style="stroke:#00ff00;stroke-opacity:1">
    <g
       transform="matrix(1.3080826,0,0,1.3080826,-17.843953,-87.176553)"
       id="g1827"
       style="stroke:#00ff00;stroke-opacity:1">
      <path
         inkscape:connector-curvature="0"
         d="m 105.19003,160.75102 v 1.71285 m 0,-1.71285 h 0.73408 l 0.24469,0.0816 0.0816,0.0816 0.0816,0.16312 v 0.16314 l -0.0816,0.16312 -0.0816,0.0816 -0.24469,0.0816 h -0.73408 m 0.57095,0 0.57095,0.89721"
         style="fill:none;stroke:#00ff00;stroke-width:0.08156419;stroke-opacity:1"
         id="path1697" />
      <path
         inkscape:connector-curvature="0"
         d="m 106.82131,161.81136 h 0.97877 v -0.16314 l -0.0816,-0.16312 -0.0816,-0.0816 -0.16314,-0.0816 h -0.24469 l -0.16312,0.0816 -0.16313,0.16313 -0.0816,0.2447 v 0.16312 l 0.0816,0.24469 0.16313,0.16314 0.16312,0.0816 h 0.24469 l 0.16314,-0.0816 0.16312,-0.16314"
         style="fill:none;stroke:#00ff00;stroke-width:0.08156419;stroke-opacity:1"
         id="path1699" />
      <path
         inkscape:connector-curvature="0"
         d="m 108.20791,161.32197 0.48938,1.1419 m 0.48938,-1.1419 -0.48938,1.1419"
         style="fill:none;stroke:#00ff00;stroke-width:0.08156419;stroke-opacity:1"
         id="path1701" />
      <path
         inkscape:connector-curvature="0"
         d="m 110.06574,161.15884 v -0.0816 l 0.0816,-0.16312 0.0816,-0.0816 0.16313,-0.0816 h 0.32625 l 0.16314,0.0816 0.0816,0.0816 0.0816,0.16312 v 0.16314 l -0.0816,0.16312 -0.16313,0.24469 -0.81564,0.81565 h 1.1419"
         style="fill:none;stroke:#00ff00;stroke-width:0.08156419;stroke-opacity:1"
         id="path1705" />
    </g>
    <g
       transform="matrix(0.64277742,0,0,0.64277742,46.291904,23.071632)"
       id="g1773"
       style="stroke:#00ff00;stroke-opacity:1">
      <path
         inkscape:connector-curvature="0"
         d="m 114.24429,162.33678 v -0.16599 l 0.16599,-0.33197 0.16598,-0.16599 0.33198,-0.16598 h 0.66394 l 0.33198,0.16598 0.16599,0.16599 0.16598,0.33197 v 0.33198 l -0.16598,0.33197 -0.33198,0.49796 -1.65987,1.65987 h 2.32382"
         style="fill:none;stroke:#00ff00;stroke-width:0.165987;stroke-opacity:1"
         id="path1709" />
      <path
         inkscape:connector-curvature="0"
         d="m 118.39396,161.50685 -0.49796,0.16598 -0.33197,0.49796 -0.16599,0.82994 v 0.49796 l 0.16599,0.82994 0.33197,0.49796 0.49796,0.16598 h 0.33198 l 0.49796,-0.16598 0.33197,-0.49796 0.16599,-0.82994 v -0.49796 l -0.16599,-0.82994 -0.33197,-0.49796 -0.49796,-0.16598 h -0.33198"
         style="fill:none;stroke:#00ff00;stroke-width:0.165987;stroke-opacity:1"
         id="path1711" />
      <path
         inkscape:connector-curvature="0"
         d="m 121.21574,162.17079 0.33198,-0.16598 0.49796,-0.49796 v 3.48572"
         style="fill:none;stroke:#00ff00;stroke-width:0.165987;stroke-opacity:1"
         id="path1713" />
      <path
         inkscape:connector-curvature="0"
         d="m 126.19535,162.66875 -0.16598,0.49797 -0.33198,0.33197 -0.49796,0.16599 h -0.16599 l -0.49796,-0.16599 -0.33197,-0.33197 -0.16599,-0.49797 v -0.16598 l 0.16599,-0.49796 0.33197,-0.33198 0.49796,-0.16598 h 0.16599 l 0.49796,0.16598 0.33198,0.33198 0.16598,0.66394 v 0.82994 l -0.16598,0.82994 -0.33198,0.49796 -0.49796,0.16598 h -0.33197 l -0.49796,-0.16598 -0.16599,-0.33198"
         style="fill:none;stroke:#00ff00;stroke-width:0.165987;stroke-opacity:1"
         id="path1715" />
    </g>
    <g
       transform="matrix(1.6901395,0,0,1.6901395,-40.579147,-149.82221)"
       id="g1817"
       style="stroke:#00ff00;stroke-opacity:1">
      <path
         inkscape:connector-curvature="0"
         d="m 71.087664,161.50685 -2.323818,3.48572 m 0,-3.48572 h 2.323818 m -2.323818,3.48572 h 2.323818"
         style="fill:none;stroke:#00ff00;stroke-width:0.165987;stroke-opacity:1"
         id="path1675" />
      <path
         inkscape:connector-curvature="0"
         d="m 72.083586,163.66468 h 1.991844 v -0.33198 l -0.165987,-0.33197 -0.165987,-0.16599 -0.331974,-0.16599 h -0.497961 l -0.331974,0.16599 -0.331974,0.33198 -0.165987,0.49796 v 0.33197 l 0.165987,0.49796 0.331974,0.33198 0.331974,0.16598 h 0.497961 l 0.331974,-0.16598 0.331974,-0.33198"
         style="fill:none;stroke:#00ff00;stroke-width:0.165987;stroke-opacity:1"
         id="path1677" />
      <path
         inkscape:connector-curvature="0"
         d="m 75.071352,161.50685 0.165987,0.16598 0.165987,-0.16598 -0.165987,-0.16599 -0.165987,0.16599 m 0.165987,1.1619 v 2.32382"
         style="fill:none;stroke:#00ff00;stroke-width:0.165987;stroke-opacity:1"
         id="path1679" />
      <path
         inkscape:connector-curvature="0"
         d="m 76.731222,161.50685 v 2.82178 l 0.165987,0.49796 0.331974,0.16598 h 0.331974 m -1.327896,-2.32382 h 1.161909"
         style="fill:none;stroke:#00ff00;stroke-width:0.165987;stroke-opacity:1"
         id="path1681" />
      <path
         inkscape:connector-curvature="0"
         d="m 78.391092,162.66875 0.663948,2.32382 m 0.663948,-2.32382 -0.663948,2.32382 m 0.663948,-2.32382 0.663948,2.32382 m 0.663948,-2.32382 -0.663948,2.32382"
         style="fill:none;stroke:#00ff00;stroke-width:0.165987;stroke-opacity:1"
         id="path1683" />
      <path
         inkscape:connector-curvature="0"
         d="m 82.208793,162.66875 v 1.65988 l 0.165987,0.49796 0.331974,0.16598 h 0.497961 l 0.331974,-0.16598 0.497961,-0.49796 m 0,-1.65988 v 2.32382"
         style="fill:none;stroke:#00ff00;stroke-width:0.165987;stroke-opacity:1"
         id="path1685" />
      <path
         inkscape:connector-curvature="0"
         d="m 85.362546,162.66875 v 2.32382 m 0,-1.32789 0.165987,-0.49796 0.331974,-0.33198 0.331974,-0.16599 h 0.497961"
         style="fill:none;stroke:#00ff00;stroke-width:0.165987;stroke-opacity:1"
         id="path1687" />
      <path
         inkscape:connector-curvature="0"
         d="m 88.516299,161.50685 h -0.331974 l -0.331974,0.16598 -0.165987,0.49796 v 2.82178 m -0.497961,-2.32382 h 1.161909"
         style="fill:none;stroke:#00ff00;stroke-width:0.165987;stroke-opacity:1"
         id="path1689" />
      <path
         inkscape:connector-curvature="0"
         d="m 89.346234,163.66468 h 1.991844 v -0.33198 l -0.165987,-0.33197 -0.165987,-0.16599 -0.331974,-0.16599 h -0.497961 l -0.331974,0.16599 -0.331974,0.33198 -0.165987,0.49796 v 0.33197 l 0.165987,0.49796 0.331974,0.33198 0.331974,0.16598 h 0.497961 l 0.331974,-0.16598 0.331974,-0.33198"
         style="fill:none;stroke:#00ff00;stroke-width:0.165987;stroke-opacity:1"
         id="path1691" />
      <path
         inkscape:connector-curvature="0"
         d="m 92.499987,161.50685 v 3.48572"
         style="fill:none;stroke:#00ff00;stroke-width:0.165987;stroke-opacity:1"
         id="path1693" />
      <path
         inkscape:connector-curvature="0"
         d="m 82.383636,161.48363 0.165987,0.16598 0.165987,-0.16598 -0.165987,-0.16599 -0.165987,0.16599"
         style="fill:none;stroke:#00ff00;stroke-width:0.165987;stroke-opacity:1"
         id="path1679-5"
         sodipodi:nodetypes="ccccc" />
      <path
         inkscape:connector-curvature="0"
         d="m 83.508621,161.48363 0.165987,0.16598 0.165987,-0.16598 -0.165987,-0.16599 -0.165987,0.16599"
         style="fill:none;stroke:#00ff00;stroke-width:0.165987;stroke-opacity:1"
         id="path1679-5-6"
         sodipodi:nodetypes="ccccc" />
    </g>
  </g>
  <path
     id="path880"
     d="m 159.50584,37.098386 c -0.12444,0 -0.24889,0.01822 -0.3676,0.05676 -0.67481,0.219208 -1.38451,0.359793 -2.13169,0.359793 -0.74718,0 -1.45688,-0.140585 -2.13221,-0.359793 -0.11871,-0.03853 -0.24264,-0.05676 -0.36708,-0.05676 -3.23138,0 -5.84887,2.628421 -5.83168,5.863963 0.007,1.367322 1.13145,2.46701 2.49929,2.46701 h 11.66336 c 1.36784,0 2.492,-1.099688 2.49929,-2.46701 0.0172,-3.235542 -2.6003,-5.863963 -5.83168,-5.863963 z m -2.49929,-1.666195 c 2.76068,0 4.99858,-2.237908 4.99858,-4.998584 0,-2.760676 -2.2379,-4.998584 -4.99858,-4.998584 -2.76068,0 -4.99858,2.237908 -4.99858,4.998584 0,2.760676 2.2379,4.998584 4.99858,4.998584 z m 22.49363,-16.661946 h -19.99434 c -1.37825,0 -2.49929,1.158526 -2.49929,2.582081 v 2.416503 c 1.21945,0 2.34829,0.353025 3.33239,0.92682 v -2.593015 h 18.32814 v 14.995752 h -3.33239 v -3.33239 h -6.66478 v 3.33239 h -3.96971 c 0.99451,0.869024 1.72452,2.016616 2.06661,3.332389 h 12.73337 c 1.37825,0 2.49929,-1.158526 2.49929,-2.582081 V 21.352326 c 0,-1.423555 -1.12104,-2.582081 -2.49929,-2.582081 z"
     inkscape:connector-curvature="0"
     style="fill:#000000" />
  <path
     id="path891"
     d="m 109.55481,39.779918 -6.10244,-9.814928 v -7.862356 h 0.41655 c 0.69251,0 1.24964,-0.557134 1.24964,-1.249646 v -0.833097 c 0,-0.692512 -0.55713,-1.249646 -1.24964,-1.249646 H 93.038662 c -0.69251,0 -1.24964,0.557134 -1.24964,1.249646 v 0.833097 c 0,0.692512 0.55713,1.249646 1.24964,1.249646 h 0.41655 v 7.862356 l -6.10243,9.814928 c -1.52561,2.452429 0.2343,5.649441 3.12932,5.649441 h 15.943378 c 2.90022,0 4.65493,-3.202219 3.12933,-5.649441 z m -15.584118,-4.347727 2.509715,-4.040522 c 0.19265,-0.270757 0.302,-0.603996 0.302,-0.958062 v -8.330973 h 3.332363 v 8.330973 c 0,0.359273 0.11456,0.687305 0.302,0.958062 l 2.50971,4.040522 z"
     inkscape:connector-curvature="0"
     style="fill:#000000" />
  <path
     style="font-size:12px;vector-effect:non-scaling-stroke;fill:none;fill-rule:evenodd;stroke:#ff0000;stroke-width:0.2;stroke-linecap:round;stroke-linejoin:miter;stroke-miterlimit:4;stroke-dasharray:none"
     d="M 69.455545,0.09996529 V 8.0997619 l -3.000449,1.19e-4 V 21.100029 l 8.000143,-1.19e-4 v 2.999912 h -4.999694 v 16.000034 h 4.999694 v 2.999449 l -8.000143,1.22e-4 v 13.000609 l 3.000449,-1.19e-4 v 8.000041 h 4.999694 v -3.000342 h 16.000057 v 3.000342 h 16.000054 v -3.000342 h 16.00007 v 3.000342 h 4.9997 v -8.000041 l 2.99999,1.19e-4 V 43.099427 l -7.99969,-1.22e-4 v -2.999449 h 4.9997 V 24.099822 h -4.9997 V 21.09991 l 7.99969,1.19e-4 V 8.0998809 l -2.99999,-1.19e-4 V 0.09996529 h -4.9997 V 3.1000692 H 106.45535 V 0.09996529 H 90.455296 V 3.1000692 H 74.455239 V 0.09996529 Z"
     id="left_outsideCutPath-67"
     inkscape:connector-curvature="0"
     sodipodi:nodetypes="ccccccccccccccccccccccccccccccccccccccccccccc" />
</svg>
